<svg width="512" height="512" viewBox="0 0 512 512" fill="none" xmlns="http://www.w3.org/2000/svg">
<g clip-path="url(#clip0_742_41)">
<path d="M256 512C397.385 512 512 397.385 512 256C512 114.615 397.385 0 256 0C114.615 0 0 114.615 0 256C0 397.385 114.615 512 256 512Z" fill="#F3FBFF"/>
<g filter="url(#filter0_d_742_41)">
<path d="M100.16 152.704C122.432 151.168 142.016 150.4 158.912 150.4C206.528 150.4 230.336 167.2 230.336 200.8C230.336 216.352 226.304 229.984 218.24 241.696C214.016 248.032 207.488 253.12 198.656 256.96C189.824 260.608 179.168 262.432 166.688 262.432H124.064V352H100.16V152.704ZM159.2 153.28C148.064 153.28 136.352 153.952 124.064 155.296V259.552H166.688C193.76 258.4 207.296 239.008 207.296 201.376C207.296 186.016 203.264 174.208 195.2 165.952C187.136 157.504 175.136 153.28 159.2 153.28ZM359.725 353.152C323.821 353.152 297.229 342.976 279.949 322.624C273.805 315.328 268.813 305.632 264.973 293.536C261.133 281.44 259.213 266.752 259.213 249.472C259.213 232.192 261.997 216.736 267.565 203.104C273.325 189.28 281.101 178.624 290.893 171.136C309.901 157.12 332.845 150.112 359.725 150.112C368.365 150.112 376.813 150.784 385.069 152.128C393.325 153.28 399.469 154.528 403.501 155.872L409.549 157.888L408.685 160.768C393.709 155.584 377.389 152.992 359.725 152.992C339.373 152.992 322.381 159.616 308.749 172.864C298.381 182.656 291.085 197.056 286.861 216.064C284.365 226.816 283.117 239.968 283.117 255.52C283.117 271.072 285.325 285.472 289.741 298.72C294.157 311.776 299.149 321.472 304.717 327.808C310.477 334.144 317.389 339.232 325.453 343.072C333.517 346.72 339.949 348.832 344.749 349.408C349.549 349.984 355.213 350.272 361.741 350.272C368.461 350.272 377.389 349.504 388.525 347.968V288.64H353.677V285.76H424.813V288.64H412.429V345.376C397.837 350.56 380.269 353.152 359.725 353.152Z" fill="url(#paint0_linear_742_41)"/>
</g>
</g>
<defs>
<filter id="filter0_d_742_41" x="96.16" y="150.112" width="332.653" height="211.04" filterUnits="userSpaceOnUse" color-interpolation-filters="sRGB">
<feFlood flood-opacity="0" result="BackgroundImageFix"/>
<feColorMatrix in="SourceAlpha" type="matrix" values="0 0 0 0 0 0 0 0 0 0 0 0 0 0 0 0 0 0 127 0" result="hardAlpha"/>
<feOffset dy="4"/>
<feGaussianBlur stdDeviation="2"/>
<feComposite in2="hardAlpha" operator="out"/>
<feColorMatrix type="matrix" values="0 0 0 0 0 0 0 0 0 0 0 0 0 0 0 0 0 0 0.25 0"/>
<feBlend mode="normal" in2="BackgroundImageFix" result="effect1_dropShadow_742_41"/>
<feBlend mode="normal" in="SourceGraphic" in2="effect1_dropShadow_742_41" result="shape"/>
</filter>
<linearGradient id="paint0_linear_742_41" x1="358.667" y1="248" x2="177.778" y2="248" gradientUnits="userSpaceOnUse">
<stop stop-color="#FF0000"/>
<stop offset="1" stop-color="#1E293B"/>
</linearGradient>
<clipPath id="clip0_742_41">
<rect width="512" height="512" fill="white"/>
</clipPath>
</defs>
</svg>
